<svg xmlns="http://www.w3.org/2000/svg" xml:space="preserve" width="100px" height="100px" version="1.1" style="shape-rendering:geometricPrecision; text-rendering:geometricPrecision; image-rendering:optimizeQuality; fill-rule:evenodd; clip-rule:evenodd"
viewBox="0 0 55.74 55.74"
 xmlns:xlink="http://www.w3.org/1999/xlink"
 xmlns:xodm="http://www.corel.com/coreldraw/odm/2003">
 <defs>
  <style type="text/css">
   <![CDATA[
    .fil1 {fill:none}
    .fil0 {fill:#004C93}
   ]]>
  </style>
 </defs>
 <g id="Ebene_x0020_1">
  <metadata id="CorelCorpID_0Corel-Layer"/>
  <g id="_105553177552928">
   <path class="fil0" d="M47.2 47.1l-39.82 0 -0.09 0 -0.26 0 0 -0.26 0 -0.09 0 -37.76 0 -0.09 0 -0.26 0.26 0 0.09 0 37.76 0 0.09 0 0.26 0 0 0.26 0 0.09 0 7.19c0,0.2 0.13,0.39 0.33,0.46l1.58 0.6c0.02,0 0.04,0.01 0.05,0.01 0.09,0 0.15,-0.07 0.15,-0.15l0 -9.52c0,-0.58 -0.47,-1.05 -1.05,-1.05l-40.57 0c-0.58,0 -1.05,0.47 -1.06,1.05l0 40.58c0.01,0.58 0.48,1.05 1.06,1.05l41.22 0c0.22,0 0.4,-0.18 0.4,-0.4l0 -1.31c0,-0.22 -0.18,-0.4 -0.4,-0.4z"/>
   <path class="fil0" d="M22.96 35.32c0,3.44 -1.2,5.74 -5.55,5.74 -4.35,0 -5.55,-2.3 -5.55,-5.74l0 -9.95c0,-0.42 0.09,-0.48 0.48,-0.48l2.14 0c0.4,0 0.49,0.06 0.49,0.48l0 9.95c0,1.66 0.11,3.25 2.44,3.25 2.33,0 2.44,-1.59 2.44,-3.25l0 -9.95c0,-0.42 0.09,-0.48 0.49,-0.48l2.14 0c0.39,0 0.48,0.06 0.48,0.48l0 9.95z"/>
   <path class="fil0" d="M31.44 38.18c2.6,0 3.57,-1.13 3.57,-5.53 0,-4.12 -0.99,-5.28 -3.57,-5.28l-0.83 0 0 10.81 0.83 0zm0.14 -13.29c4.4,0 6.7,1.42 6.7,7.81 0,6.61 -2.67,7.97 -6.77,7.97l-3.53 0c-0.39,0 -0.48,-0.09 -0.48,-0.49l0 -14.81c0,-0.42 0.09,-0.48 0.51,-0.48l3.57 0z"/>
   <path class="fil0" d="M50.72 40.18c0,0.42 -0.07,0.49 -0.46,0.49l-7.58 0c-0.39,0 -0.48,-0.07 -0.48,-0.49l0 -14.81c0,-0.42 0.09,-0.48 0.48,-0.48l7.56 0c0.46,0 0.57,0.04 0.57,0.25 0,0.11 -0.02,0.16 -0.07,0.32l-0.43 1.55c-0.1,0.34 -0.35,0.36 -0.53,0.36l-4.47 0 0 3.81 3.91 0c0.42,0 0.49,0.06 0.49,0.48l0 1.52c0,0.42 -0.1,0.48 -0.49,0.48l-3.91 0 0 4.52 4.93 0c0.41,0 0.48,0.07 0.48,0.48l0 1.52z"/>
  </g>
  <rect class="fil1" width="55.74" height="55.74"/>
 </g>
</svg>
